<mxfile host="app.diagrams.net" modified="2023-01-05T02:58:16.467Z" agent="5.0 (Macintosh; Intel Mac OS X 10_15_7) AppleWebKit/537.36 (KHTML, like Gecko) Chrome/108.0.0.0 Safari/537.36" etag="48t9F-kAyWQolrS98-Wn" version="20.8.1" type="github">
  <diagram id="d8bZDvyaRTqL3WgqzmWe" name="第 1 页">
    <mxGraphModel dx="3781" dy="1099" grid="1" gridSize="10" guides="1" tooltips="1" connect="1" arrows="1" fold="1" page="1" pageScale="1" pageWidth="827" pageHeight="1169" math="0" shadow="0">
      <root>
        <mxCell id="0" />
        <mxCell id="1" parent="0" />
        <mxCell id="3ZjSXWtfqEHAiK6z2kli-3" value="" style="rounded=0;whiteSpace=wrap;html=1;dashed=1;fillColor=#e51400;fontColor=#ffffff;strokeColor=#B20000;" vertex="1" parent="1">
          <mxGeometry x="650.32" y="570" width="470" height="250" as="geometry" />
        </mxCell>
        <mxCell id="3ZjSXWtfqEHAiK6z2kli-2" value="" style="rounded=0;whiteSpace=wrap;html=1;dashed=1;fillColor=#e51400;fontColor=#ffffff;strokeColor=#B20000;" vertex="1" parent="1">
          <mxGeometry x="-150" y="370" width="790" height="370" as="geometry" />
        </mxCell>
        <mxCell id="cq9_FSoDsHFWqfSbP8nX-9" style="edgeStyle=orthogonalEdgeStyle;rounded=0;orthogonalLoop=1;jettySize=auto;html=1;fontSize=20;" parent="1" source="cq9_FSoDsHFWqfSbP8nX-2" target="cq9_FSoDsHFWqfSbP8nX-8" edge="1">
          <mxGeometry relative="1" as="geometry" />
        </mxCell>
        <mxCell id="cq9_FSoDsHFWqfSbP8nX-10" value="where:0" style="edgeLabel;html=1;align=center;verticalAlign=middle;resizable=0;points=[];fontSize=20;" parent="cq9_FSoDsHFWqfSbP8nX-9" vertex="1" connectable="0">
          <mxGeometry x="-0.0358" relative="1" as="geometry">
            <mxPoint as="offset" />
          </mxGeometry>
        </mxCell>
        <mxCell id="cq9_FSoDsHFWqfSbP8nX-20" value="where:1" style="edgeStyle=orthogonalEdgeStyle;rounded=0;orthogonalLoop=1;jettySize=auto;html=1;exitX=1;exitY=0.5;exitDx=0;exitDy=0;entryX=1;entryY=0.5;entryDx=0;entryDy=0;fontSize=20;" parent="1" source="cq9_FSoDsHFWqfSbP8nX-2" target="cq9_FSoDsHFWqfSbP8nX-8" edge="1">
          <mxGeometry relative="1" as="geometry" />
        </mxCell>
        <mxCell id="cq9_FSoDsHFWqfSbP8nX-2" value="lmhlo_disc.where" style="rounded=0;whiteSpace=wrap;html=1;fontSize=20;fillColor=#f8cecc;strokeColor=#b85450;gradientColor=#ea6b66;" parent="1" vertex="1">
          <mxGeometry x="781.88" y="460" width="205" height="60" as="geometry" />
        </mxCell>
        <mxCell id="cq9_FSoDsHFWqfSbP8nX-7" style="edgeStyle=orthogonalEdgeStyle;rounded=0;orthogonalLoop=1;jettySize=auto;html=1;exitX=0.5;exitY=1;exitDx=0;exitDy=0;fontSize=20;" parent="1" source="cq9_FSoDsHFWqfSbP8nX-3" target="cq9_FSoDsHFWqfSbP8nX-2" edge="1">
          <mxGeometry relative="1" as="geometry" />
        </mxCell>
        <mxCell id="cq9_FSoDsHFWqfSbP8nX-3" value="lmhlo.compare : GE" style="rounded=0;whiteSpace=wrap;html=1;fontSize=20;" parent="1" vertex="1">
          <mxGeometry x="740" y="310" width="290.62" height="70" as="geometry" />
        </mxCell>
        <mxCell id="cq9_FSoDsHFWqfSbP8nX-38" style="edgeStyle=orthogonalEdgeStyle;rounded=0;orthogonalLoop=1;jettySize=auto;html=1;entryX=0.5;entryY=0;entryDx=0;entryDy=0;fontSize=20;" parent="1" source="cq9_FSoDsHFWqfSbP8nX-4" target="cq9_FSoDsHFWqfSbP8nX-3" edge="1">
          <mxGeometry relative="1" as="geometry" />
        </mxCell>
        <mxCell id="cq9_FSoDsHFWqfSbP8nX-4" value="lmhlo.dynamic_broadcast" style="rounded=0;whiteSpace=wrap;html=1;fontSize=20;" parent="1" vertex="1">
          <mxGeometry x="740" y="170" width="288.75" height="70" as="geometry" />
        </mxCell>
        <mxCell id="cq9_FSoDsHFWqfSbP8nX-19" style="edgeStyle=orthogonalEdgeStyle;rounded=0;orthogonalLoop=1;jettySize=auto;html=1;exitX=0.5;exitY=1;exitDx=0;exitDy=0;entryX=0.5;entryY=0;entryDx=0;entryDy=0;fontSize=20;" parent="1" source="cq9_FSoDsHFWqfSbP8nX-8" target="cq9_FSoDsHFWqfSbP8nX-18" edge="1">
          <mxGeometry relative="1" as="geometry" />
        </mxCell>
        <mxCell id="cq9_FSoDsHFWqfSbP8nX-8" value="lmhlo.real_dynamic_slice" style="rounded=0;whiteSpace=wrap;html=1;fontSize=20;fillColor=#1ba1e2;fontColor=#ffffff;strokeColor=#006EAF;" parent="1" vertex="1">
          <mxGeometry x="745.94" y="600" width="278.75" height="60" as="geometry" />
        </mxCell>
        <mxCell id="JlMi3RwVU-hrbqbBFsQh-24" style="edgeStyle=orthogonalEdgeStyle;rounded=0;orthogonalLoop=1;jettySize=auto;html=1;entryX=1;entryY=0.25;entryDx=0;entryDy=0;fontSize=20;" parent="1" source="cq9_FSoDsHFWqfSbP8nX-14" target="cq9_FSoDsHFWqfSbP8nX-47" edge="1">
          <mxGeometry relative="1" as="geometry">
            <Array as="points">
              <mxPoint x="1299" y="928" />
            </Array>
          </mxGeometry>
        </mxCell>
        <mxCell id="cq9_FSoDsHFWqfSbP8nX-14" value="lmhlo.dynamic_gather" style="rounded=0;whiteSpace=wrap;html=1;fontSize=20;" parent="1" vertex="1">
          <mxGeometry x="1160" y="780" width="278.75" height="60" as="geometry" />
        </mxCell>
        <mxCell id="cq9_FSoDsHFWqfSbP8nX-50" value="StartIndices" style="edgeStyle=orthogonalEdgeStyle;rounded=0;orthogonalLoop=1;jettySize=auto;html=1;exitX=1;exitY=0.5;exitDx=0;exitDy=0;entryX=0;entryY=0.5;entryDx=0;entryDy=0;fontSize=20;" parent="1" source="cq9_FSoDsHFWqfSbP8nX-18" target="cq9_FSoDsHFWqfSbP8nX-14" edge="1">
          <mxGeometry relative="1" as="geometry" />
        </mxCell>
        <mxCell id="cq9_FSoDsHFWqfSbP8nX-53" style="edgeStyle=orthogonalEdgeStyle;rounded=0;orthogonalLoop=1;jettySize=auto;html=1;exitX=0;exitY=0.5;exitDx=0;exitDy=0;entryX=1;entryY=0.5;entryDx=0;entryDy=0;fontSize=20;" parent="1" source="cq9_FSoDsHFWqfSbP8nX-18" target="cq9_FSoDsHFWqfSbP8nX-27" edge="1">
          <mxGeometry relative="1" as="geometry" />
        </mxCell>
        <mxCell id="cq9_FSoDsHFWqfSbP8nX-54" value="StartIndices" style="edgeLabel;html=1;align=center;verticalAlign=middle;resizable=0;points=[];fontSize=20;" parent="cq9_FSoDsHFWqfSbP8nX-53" vertex="1" connectable="0">
          <mxGeometry x="-0.0323" y="-1" relative="1" as="geometry">
            <mxPoint as="offset" />
          </mxGeometry>
        </mxCell>
        <mxCell id="cq9_FSoDsHFWqfSbP8nX-18" value="lmhlo.dynamic_reshape" style="rounded=0;whiteSpace=wrap;html=1;fontSize=20;" parent="1" vertex="1">
          <mxGeometry x="745" y="720" width="278.75" height="60" as="geometry" />
        </mxCell>
        <mxCell id="cq9_FSoDsHFWqfSbP8nX-48" style="edgeStyle=orthogonalEdgeStyle;rounded=0;orthogonalLoop=1;jettySize=auto;html=1;exitX=0;exitY=0.5;exitDx=0;exitDy=0;entryX=1;entryY=0.5;entryDx=0;entryDy=0;fontSize=20;" parent="1" source="cq9_FSoDsHFWqfSbP8nX-22" target="cq9_FSoDsHFWqfSbP8nX-3" edge="1">
          <mxGeometry relative="1" as="geometry" />
        </mxCell>
        <mxCell id="cq9_FSoDsHFWqfSbP8nX-49" style="edgeStyle=orthogonalEdgeStyle;rounded=0;orthogonalLoop=1;jettySize=auto;html=1;entryX=0.5;entryY=0;entryDx=0;entryDy=0;fontSize=20;" parent="1" source="cq9_FSoDsHFWqfSbP8nX-22" target="cq9_FSoDsHFWqfSbP8nX-14" edge="1">
          <mxGeometry relative="1" as="geometry" />
        </mxCell>
        <mxCell id="cq9_FSoDsHFWqfSbP8nX-22" value="sparse tensor values" style="rounded=0;whiteSpace=wrap;html=1;fontSize=20;fillColor=#d5e8d4;strokeColor=#82b366;gradientColor=#97d077;" parent="1" vertex="1">
          <mxGeometry x="1155" y="165" width="288.75" height="70" as="geometry" />
        </mxCell>
        <mxCell id="cq9_FSoDsHFWqfSbP8nX-39" style="edgeStyle=orthogonalEdgeStyle;rounded=0;orthogonalLoop=1;jettySize=auto;html=1;entryX=0.5;entryY=0;entryDx=0;entryDy=0;fontSize=20;" parent="1" source="cq9_FSoDsHFWqfSbP8nX-25" target="cq9_FSoDsHFWqfSbP8nX-4" edge="1">
          <mxGeometry relative="1" as="geometry" />
        </mxCell>
        <mxCell id="cq9_FSoDsHFWqfSbP8nX-25" value="lmhlo.constant: 0" style="rounded=0;whiteSpace=wrap;html=1;fontSize=20;" parent="1" vertex="1">
          <mxGeometry x="782.8199999999999" y="70" width="205" height="60" as="geometry" />
        </mxCell>
        <mxCell id="cq9_FSoDsHFWqfSbP8nX-68" style="edgeStyle=orthogonalEdgeStyle;rounded=0;orthogonalLoop=1;jettySize=auto;html=1;entryX=0;entryY=0.25;entryDx=0;entryDy=0;fontSize=20;" parent="1" source="cq9_FSoDsHFWqfSbP8nX-27" target="cq9_FSoDsHFWqfSbP8nX-47" edge="1">
          <mxGeometry relative="1" as="geometry">
            <Array as="points">
              <mxPoint x="474" y="928" />
            </Array>
          </mxGeometry>
        </mxCell>
        <mxCell id="cq9_FSoDsHFWqfSbP8nX-70" value="Indices" style="edgeLabel;html=1;align=center;verticalAlign=middle;resizable=0;points=[];fontSize=20;" parent="cq9_FSoDsHFWqfSbP8nX-68" vertex="1" connectable="0">
          <mxGeometry x="0.1453" y="-2" relative="1" as="geometry">
            <mxPoint y="1" as="offset" />
          </mxGeometry>
        </mxCell>
        <mxCell id="cq9_FSoDsHFWqfSbP8nX-27" value="lmhlo.dynamic_gather" style="rounded=0;whiteSpace=wrap;html=1;fontSize=20;" parent="1" vertex="1">
          <mxGeometry x="335" y="780" width="278.75" height="60" as="geometry" />
        </mxCell>
        <mxCell id="cq9_FSoDsHFWqfSbP8nX-65" style="edgeStyle=orthogonalEdgeStyle;rounded=0;orthogonalLoop=1;jettySize=auto;html=1;entryX=0.5;entryY=0;entryDx=0;entryDy=0;fontSize=20;" parent="1" source="cq9_FSoDsHFWqfSbP8nX-28" target="cq9_FSoDsHFWqfSbP8nX-64" edge="1">
          <mxGeometry relative="1" as="geometry" />
        </mxCell>
        <mxCell id="cq9_FSoDsHFWqfSbP8nX-28" value="some other&lt;br&gt;shape calculation" style="rounded=0;whiteSpace=wrap;html=1;fontSize=20;" parent="1" vertex="1">
          <mxGeometry x="-120" y="410" width="288.75" height="70" as="geometry" />
        </mxCell>
        <mxCell id="cq9_FSoDsHFWqfSbP8nX-52" style="edgeStyle=orthogonalEdgeStyle;rounded=0;orthogonalLoop=1;jettySize=auto;html=1;fontSize=20;" parent="1" source="cq9_FSoDsHFWqfSbP8nX-29" target="cq9_FSoDsHFWqfSbP8nX-27" edge="1">
          <mxGeometry relative="1" as="geometry" />
        </mxCell>
        <mxCell id="cq9_FSoDsHFWqfSbP8nX-29" value="lmhlo_disc.sparse_reshape" style="rounded=0;whiteSpace=wrap;html=1;fontSize=20;fillColor=#f8cecc;strokeColor=#b85450;gradientColor=#ea6b66;" parent="1" vertex="1">
          <mxGeometry x="330" y="560" width="288.75" height="70" as="geometry" />
        </mxCell>
        <mxCell id="cq9_FSoDsHFWqfSbP8nX-42" style="edgeStyle=orthogonalEdgeStyle;rounded=0;orthogonalLoop=1;jettySize=auto;html=1;entryX=0.5;entryY=0;entryDx=0;entryDy=0;fontSize=20;" parent="1" source="cq9_FSoDsHFWqfSbP8nX-36" target="cq9_FSoDsHFWqfSbP8nX-29" edge="1">
          <mxGeometry relative="1" as="geometry" />
        </mxCell>
        <mxCell id="cq9_FSoDsHFWqfSbP8nX-36" value="sparse tensor indices" style="rounded=0;whiteSpace=wrap;html=1;fontSize=20;fillColor=#d5e8d4;gradientColor=#97d077;strokeColor=#82b366;" parent="1" vertex="1">
          <mxGeometry x="330" y="165" width="288.75" height="70" as="geometry" />
        </mxCell>
        <mxCell id="cq9_FSoDsHFWqfSbP8nX-44" style="edgeStyle=orthogonalEdgeStyle;rounded=0;orthogonalLoop=1;jettySize=auto;html=1;entryX=0.5;entryY=0;entryDx=0;entryDy=0;fontSize=20;" parent="1" source="cq9_FSoDsHFWqfSbP8nX-43" target="cq9_FSoDsHFWqfSbP8nX-28" edge="1">
          <mxGeometry relative="1" as="geometry" />
        </mxCell>
        <mxCell id="cq9_FSoDsHFWqfSbP8nX-57" style="edgeStyle=orthogonalEdgeStyle;rounded=0;orthogonalLoop=1;jettySize=auto;html=1;entryX=0.25;entryY=0;entryDx=0;entryDy=0;fontSize=20;" parent="1" source="cq9_FSoDsHFWqfSbP8nX-43" target="cq9_FSoDsHFWqfSbP8nX-29" edge="1">
          <mxGeometry relative="1" as="geometry" />
        </mxCell>
        <mxCell id="cq9_FSoDsHFWqfSbP8nX-58" value="InputShape" style="edgeLabel;html=1;align=center;verticalAlign=middle;resizable=0;points=[];fontSize=20;" parent="cq9_FSoDsHFWqfSbP8nX-57" vertex="1" connectable="0">
          <mxGeometry x="-0.2524" relative="1" as="geometry">
            <mxPoint as="offset" />
          </mxGeometry>
        </mxCell>
        <mxCell id="cq9_FSoDsHFWqfSbP8nX-43" value="sparse tensor shape" style="rounded=0;whiteSpace=wrap;html=1;fontSize=20;fillColor=#d5e8d4;gradientColor=#97d077;strokeColor=#82b366;" parent="1" vertex="1">
          <mxGeometry x="-120" y="250" width="288.75" height="70" as="geometry" />
        </mxCell>
        <mxCell id="cq9_FSoDsHFWqfSbP8nX-47" value="lmhlo_disc.sparse_fill_empty_rows" style="rounded=0;whiteSpace=wrap;html=1;fontSize=20;fillColor=#f8cecc;strokeColor=#b85450;gradientColor=#ea6b66;" parent="1" vertex="1">
          <mxGeometry x="711.87" y="910" width="345" height="70" as="geometry" />
        </mxCell>
        <mxCell id="cq9_FSoDsHFWqfSbP8nX-66" style="edgeStyle=orthogonalEdgeStyle;rounded=0;orthogonalLoop=1;jettySize=auto;html=1;entryX=0;entryY=0.5;entryDx=0;entryDy=0;fontSize=20;" parent="1" source="cq9_FSoDsHFWqfSbP8nX-64" target="cq9_FSoDsHFWqfSbP8nX-29" edge="1">
          <mxGeometry relative="1" as="geometry" />
        </mxCell>
        <mxCell id="cq9_FSoDsHFWqfSbP8nX-69" style="edgeStyle=orthogonalEdgeStyle;rounded=0;orthogonalLoop=1;jettySize=auto;html=1;entryX=0;entryY=0.75;entryDx=0;entryDy=0;fontSize=20;" parent="1" source="cq9_FSoDsHFWqfSbP8nX-64" target="cq9_FSoDsHFWqfSbP8nX-47" edge="1">
          <mxGeometry relative="1" as="geometry">
            <Array as="points">
              <mxPoint x="24" y="963" />
            </Array>
          </mxGeometry>
        </mxCell>
        <mxCell id="cq9_FSoDsHFWqfSbP8nX-71" value="DenseShape" style="edgeLabel;html=1;align=center;verticalAlign=middle;resizable=0;points=[];fontSize=20;" parent="cq9_FSoDsHFWqfSbP8nX-69" vertex="1" connectable="0">
          <mxGeometry x="0.1433" y="3" relative="1" as="geometry">
            <mxPoint y="1" as="offset" />
          </mxGeometry>
        </mxCell>
        <mxCell id="cq9_FSoDsHFWqfSbP8nX-64" value="NewShape" style="rounded=0;whiteSpace=wrap;html=1;fontSize=20;" parent="1" vertex="1">
          <mxGeometry x="-120" y="560" width="288.75" height="70" as="geometry" />
        </mxCell>
        <mxCell id="3ZjSXWtfqEHAiK6z2kli-46" style="edgeStyle=orthogonalEdgeStyle;rounded=0;orthogonalLoop=1;jettySize=auto;html=1;exitX=0.5;exitY=1;exitDx=0;exitDy=0;entryX=0.5;entryY=0;entryDx=0;entryDy=0;" edge="1" parent="1" source="3ZjSXWtfqEHAiK6z2kli-9" target="3ZjSXWtfqEHAiK6z2kli-21">
          <mxGeometry relative="1" as="geometry" />
        </mxCell>
        <mxCell id="3ZjSXWtfqEHAiK6z2kli-52" value="Where:0" style="edgeLabel;html=1;align=center;verticalAlign=middle;resizable=0;points=[];fontSize=18;" vertex="1" connectable="0" parent="3ZjSXWtfqEHAiK6z2kli-46">
          <mxGeometry x="-0.1429" relative="1" as="geometry">
            <mxPoint as="offset" />
          </mxGeometry>
        </mxCell>
        <mxCell id="3ZjSXWtfqEHAiK6z2kli-53" style="edgeStyle=orthogonalEdgeStyle;rounded=0;orthogonalLoop=1;jettySize=auto;html=1;exitX=0;exitY=0.5;exitDx=0;exitDy=0;entryX=1;entryY=0.5;entryDx=0;entryDy=0;fontSize=18;" edge="1" parent="1" source="3ZjSXWtfqEHAiK6z2kli-9" target="3ZjSXWtfqEHAiK6z2kli-48">
          <mxGeometry relative="1" as="geometry">
            <Array as="points">
              <mxPoint x="730" y="1460" />
              <mxPoint x="730" y="1820" />
            </Array>
          </mxGeometry>
        </mxCell>
        <mxCell id="3ZjSXWtfqEHAiK6z2kli-55" value="Where:1" style="edgeLabel;html=1;align=center;verticalAlign=middle;resizable=0;points=[];fontSize=18;" vertex="1" connectable="0" parent="3ZjSXWtfqEHAiK6z2kli-53">
          <mxGeometry x="0.1849" y="1" relative="1" as="geometry">
            <mxPoint as="offset" />
          </mxGeometry>
        </mxCell>
        <mxCell id="3ZjSXWtfqEHAiK6z2kli-56" style="edgeStyle=orthogonalEdgeStyle;rounded=0;orthogonalLoop=1;jettySize=auto;html=1;exitX=1;exitY=0.5;exitDx=0;exitDy=0;entryX=1;entryY=0.5;entryDx=0;entryDy=0;fontSize=18;" edge="1" parent="1" source="3ZjSXWtfqEHAiK6z2kli-9" target="3ZjSXWtfqEHAiK6z2kli-49">
          <mxGeometry relative="1" as="geometry" />
        </mxCell>
        <mxCell id="3ZjSXWtfqEHAiK6z2kli-57" value="Where:1" style="edgeLabel;html=1;align=center;verticalAlign=middle;resizable=0;points=[];fontSize=18;" vertex="1" connectable="0" parent="3ZjSXWtfqEHAiK6z2kli-56">
          <mxGeometry x="0.7604" y="-2" relative="1" as="geometry">
            <mxPoint as="offset" />
          </mxGeometry>
        </mxCell>
        <mxCell id="3ZjSXWtfqEHAiK6z2kli-9" value="lmhlo_disc.where" style="rounded=0;whiteSpace=wrap;html=1;fontSize=20;fillColor=#f8cecc;strokeColor=#b85450;gradientColor=#ea6b66;" vertex="1" parent="1">
          <mxGeometry x="776.8800000000001" y="1430" width="205" height="60" as="geometry" />
        </mxCell>
        <mxCell id="3ZjSXWtfqEHAiK6z2kli-10" style="edgeStyle=orthogonalEdgeStyle;rounded=0;orthogonalLoop=1;jettySize=auto;html=1;exitX=0.5;exitY=1;exitDx=0;exitDy=0;fontSize=20;" edge="1" parent="1" source="3ZjSXWtfqEHAiK6z2kli-11" target="3ZjSXWtfqEHAiK6z2kli-9">
          <mxGeometry relative="1" as="geometry" />
        </mxCell>
        <mxCell id="3ZjSXWtfqEHAiK6z2kli-11" value="lmhlo.compare : GE" style="rounded=0;whiteSpace=wrap;html=1;fontSize=20;" vertex="1" parent="1">
          <mxGeometry x="735" y="1280" width="290.62" height="70" as="geometry" />
        </mxCell>
        <mxCell id="3ZjSXWtfqEHAiK6z2kli-12" style="edgeStyle=orthogonalEdgeStyle;rounded=0;orthogonalLoop=1;jettySize=auto;html=1;entryX=0.5;entryY=0;entryDx=0;entryDy=0;fontSize=20;" edge="1" parent="1" source="3ZjSXWtfqEHAiK6z2kli-13" target="3ZjSXWtfqEHAiK6z2kli-11">
          <mxGeometry relative="1" as="geometry" />
        </mxCell>
        <mxCell id="3ZjSXWtfqEHAiK6z2kli-13" value="lmhlo.dynamic_broadcast" style="rounded=0;whiteSpace=wrap;html=1;fontSize=20;" vertex="1" parent="1">
          <mxGeometry x="735" y="1140" width="288.75" height="70" as="geometry" />
        </mxCell>
        <mxCell id="3ZjSXWtfqEHAiK6z2kli-51" style="edgeStyle=orthogonalEdgeStyle;rounded=0;orthogonalLoop=1;jettySize=auto;html=1;entryX=0.5;entryY=0;entryDx=0;entryDy=0;" edge="1" parent="1" source="3ZjSXWtfqEHAiK6z2kli-17" target="3ZjSXWtfqEHAiK6z2kli-49">
          <mxGeometry relative="1" as="geometry" />
        </mxCell>
        <mxCell id="3ZjSXWtfqEHAiK6z2kli-17" value="lmhlo.dynamic_gather" style="rounded=0;whiteSpace=wrap;html=1;fontSize=20;" vertex="1" parent="1">
          <mxGeometry x="1155" y="1620" width="278.75" height="60" as="geometry" />
        </mxCell>
        <mxCell id="3ZjSXWtfqEHAiK6z2kli-18" value="StartIndices" style="edgeStyle=orthogonalEdgeStyle;rounded=0;orthogonalLoop=1;jettySize=auto;html=1;exitX=1;exitY=0.5;exitDx=0;exitDy=0;entryX=0;entryY=0.5;entryDx=0;entryDy=0;fontSize=20;" edge="1" parent="1" source="3ZjSXWtfqEHAiK6z2kli-21" target="3ZjSXWtfqEHAiK6z2kli-17">
          <mxGeometry relative="1" as="geometry" />
        </mxCell>
        <mxCell id="3ZjSXWtfqEHAiK6z2kli-19" style="edgeStyle=orthogonalEdgeStyle;rounded=0;orthogonalLoop=1;jettySize=auto;html=1;exitX=0;exitY=0.5;exitDx=0;exitDy=0;entryX=1;entryY=0.5;entryDx=0;entryDy=0;fontSize=20;" edge="1" parent="1" source="3ZjSXWtfqEHAiK6z2kli-21" target="3ZjSXWtfqEHAiK6z2kli-29">
          <mxGeometry relative="1" as="geometry" />
        </mxCell>
        <mxCell id="3ZjSXWtfqEHAiK6z2kli-20" value="StartIndices" style="edgeLabel;html=1;align=center;verticalAlign=middle;resizable=0;points=[];fontSize=20;" vertex="1" connectable="0" parent="3ZjSXWtfqEHAiK6z2kli-19">
          <mxGeometry x="-0.0323" y="-1" relative="1" as="geometry">
            <mxPoint as="offset" />
          </mxGeometry>
        </mxCell>
        <mxCell id="3ZjSXWtfqEHAiK6z2kli-21" value="lmhlo.dynamic_reshape" style="rounded=0;whiteSpace=wrap;html=1;fontSize=20;" vertex="1" parent="1">
          <mxGeometry x="740" y="1560" width="278.75" height="60" as="geometry" />
        </mxCell>
        <mxCell id="3ZjSXWtfqEHAiK6z2kli-22" style="edgeStyle=orthogonalEdgeStyle;rounded=0;orthogonalLoop=1;jettySize=auto;html=1;exitX=0;exitY=0.5;exitDx=0;exitDy=0;entryX=1;entryY=0.5;entryDx=0;entryDy=0;fontSize=20;" edge="1" parent="1" source="3ZjSXWtfqEHAiK6z2kli-24" target="3ZjSXWtfqEHAiK6z2kli-11">
          <mxGeometry relative="1" as="geometry" />
        </mxCell>
        <mxCell id="3ZjSXWtfqEHAiK6z2kli-23" style="edgeStyle=orthogonalEdgeStyle;rounded=0;orthogonalLoop=1;jettySize=auto;html=1;entryX=0.5;entryY=0;entryDx=0;entryDy=0;fontSize=20;" edge="1" parent="1" source="3ZjSXWtfqEHAiK6z2kli-24" target="3ZjSXWtfqEHAiK6z2kli-17">
          <mxGeometry relative="1" as="geometry" />
        </mxCell>
        <mxCell id="3ZjSXWtfqEHAiK6z2kli-24" value="sparse tensor values" style="rounded=0;whiteSpace=wrap;html=1;fontSize=20;fillColor=#d5e8d4;strokeColor=#82b366;gradientColor=#97d077;" vertex="1" parent="1">
          <mxGeometry x="1150" y="1135" width="288.75" height="70" as="geometry" />
        </mxCell>
        <mxCell id="3ZjSXWtfqEHAiK6z2kli-25" style="edgeStyle=orthogonalEdgeStyle;rounded=0;orthogonalLoop=1;jettySize=auto;html=1;entryX=0.5;entryY=0;entryDx=0;entryDy=0;fontSize=20;" edge="1" parent="1" source="3ZjSXWtfqEHAiK6z2kli-26" target="3ZjSXWtfqEHAiK6z2kli-13">
          <mxGeometry relative="1" as="geometry" />
        </mxCell>
        <mxCell id="3ZjSXWtfqEHAiK6z2kli-26" value="lmhlo.constant: 0" style="rounded=0;whiteSpace=wrap;html=1;fontSize=20;" vertex="1" parent="1">
          <mxGeometry x="777.8199999999997" y="1040" width="205" height="60" as="geometry" />
        </mxCell>
        <mxCell id="3ZjSXWtfqEHAiK6z2kli-50" style="edgeStyle=orthogonalEdgeStyle;rounded=0;orthogonalLoop=1;jettySize=auto;html=1;" edge="1" parent="1" source="3ZjSXWtfqEHAiK6z2kli-29" target="3ZjSXWtfqEHAiK6z2kli-48">
          <mxGeometry relative="1" as="geometry" />
        </mxCell>
        <mxCell id="3ZjSXWtfqEHAiK6z2kli-29" value="lmhlo.dynamic_gather" style="rounded=0;whiteSpace=wrap;html=1;fontSize=20;" vertex="1" parent="1">
          <mxGeometry x="330" y="1620" width="278.75" height="60" as="geometry" />
        </mxCell>
        <mxCell id="3ZjSXWtfqEHAiK6z2kli-45" style="edgeStyle=orthogonalEdgeStyle;rounded=0;orthogonalLoop=1;jettySize=auto;html=1;entryX=0.5;entryY=0;entryDx=0;entryDy=0;" edge="1" parent="1" source="3ZjSXWtfqEHAiK6z2kli-35" target="3ZjSXWtfqEHAiK6z2kli-29">
          <mxGeometry relative="1" as="geometry" />
        </mxCell>
        <mxCell id="3ZjSXWtfqEHAiK6z2kli-35" value="sparse tensor indices" style="rounded=0;whiteSpace=wrap;html=1;fontSize=20;fillColor=#d5e8d4;gradientColor=#97d077;strokeColor=#82b366;" vertex="1" parent="1">
          <mxGeometry x="325" y="1135" width="288.75" height="70" as="geometry" />
        </mxCell>
        <mxCell id="3ZjSXWtfqEHAiK6z2kli-47" style="edgeStyle=orthogonalEdgeStyle;rounded=0;orthogonalLoop=1;jettySize=auto;html=1;entryX=0;entryY=0.75;entryDx=0;entryDy=0;" edge="1" parent="1" source="3ZjSXWtfqEHAiK6z2kli-39" target="3ZjSXWtfqEHAiK6z2kli-40">
          <mxGeometry relative="1" as="geometry">
            <Array as="points">
              <mxPoint x="10" y="1993" />
            </Array>
          </mxGeometry>
        </mxCell>
        <mxCell id="3ZjSXWtfqEHAiK6z2kli-39" value="sparse tensor shape" style="rounded=0;whiteSpace=wrap;html=1;fontSize=20;fillColor=#d5e8d4;gradientColor=#97d077;strokeColor=#82b366;" vertex="1" parent="1">
          <mxGeometry x="-125" y="1220" width="288.75" height="70" as="geometry" />
        </mxCell>
        <mxCell id="3ZjSXWtfqEHAiK6z2kli-40" value="lmhlo_disc.sparse_fill_empty_rows" style="rounded=0;whiteSpace=wrap;html=1;fontSize=20;fillColor=#f8cecc;strokeColor=#b85450;gradientColor=#ea6b66;" vertex="1" parent="1">
          <mxGeometry x="713.9699999999999" y="1940" width="345" height="70" as="geometry" />
        </mxCell>
        <mxCell id="3ZjSXWtfqEHAiK6z2kli-58" style="edgeStyle=orthogonalEdgeStyle;rounded=0;orthogonalLoop=1;jettySize=auto;html=1;exitX=0.5;exitY=1;exitDx=0;exitDy=0;entryX=0;entryY=0.25;entryDx=0;entryDy=0;fontSize=18;" edge="1" parent="1" source="3ZjSXWtfqEHAiK6z2kli-48" target="3ZjSXWtfqEHAiK6z2kli-40">
          <mxGeometry relative="1" as="geometry" />
        </mxCell>
        <mxCell id="3ZjSXWtfqEHAiK6z2kli-48" value="lmhlo.real_dynamic_slice" style="rounded=0;whiteSpace=wrap;html=1;fontSize=20;fillColor=#1ba1e2;fontColor=#ffffff;strokeColor=#006EAF;" vertex="1" parent="1">
          <mxGeometry x="330.00000000000006" y="1790" width="278.75" height="60" as="geometry" />
        </mxCell>
        <mxCell id="3ZjSXWtfqEHAiK6z2kli-59" style="edgeStyle=orthogonalEdgeStyle;rounded=0;orthogonalLoop=1;jettySize=auto;html=1;exitX=0.5;exitY=1;exitDx=0;exitDy=0;entryX=1;entryY=0.5;entryDx=0;entryDy=0;fontSize=18;" edge="1" parent="1" source="3ZjSXWtfqEHAiK6z2kli-49" target="3ZjSXWtfqEHAiK6z2kli-40">
          <mxGeometry relative="1" as="geometry" />
        </mxCell>
        <mxCell id="3ZjSXWtfqEHAiK6z2kli-49" value="lmhlo.real_dynamic_slice" style="rounded=0;whiteSpace=wrap;html=1;fontSize=20;fillColor=#1ba1e2;fontColor=#ffffff;strokeColor=#006EAF;" vertex="1" parent="1">
          <mxGeometry x="1155" y="1790" width="278.75" height="60" as="geometry" />
        </mxCell>
      </root>
    </mxGraphModel>
  </diagram>
</mxfile>
